<?xml version="1.0" encoding="UTF-8"?>
<svg version="1.1" xmlns="http://www.w3.org/2000/svg" width="2000" height="2000">
<path d="M0 0 C3.00588888 1.13114087 5.90839033 2.44309509 8.8125 3.8125 C9.54154541 4.15595459 10.27059082 4.49940918 11.02172852 4.85327148 C17.26281776 7.91459933 21.84068984 10.82194899 24.875 17.3125 C25.37854004 18.3737207 25.88208008 19.43494141 26.40087891 20.52832031 C26.92858887 21.67397461 27.45629883 22.81962891 28 24 C28.5671208 25.20721171 29.13533842 26.41390869 29.70458984 27.62011719 C31.19007448 30.77663584 32.65964229 33.94027707 34.12390137 37.10668945 C34.97769372 38.95179457 35.83440966 40.79550757 36.69238281 42.63867188 C38.87881758 47.33583897 41.06352402 52.03373831 43.23510742 56.73779297 C47.31096005 65.5624719 51.48693546 74.33571088 55.75048828 83.07128906 C56.17958496 83.9578418 56.60868164 84.84439453 57.05078125 85.7578125 C57.42887939 86.5327002 57.80697754 87.30758789 58.1965332 88.10595703 C59 90 59 90 59 92 C73.08294701 93.98132795 73.08294701 93.98132795 86.4453125 90.65673828 C91.14133701 86.79504959 94.55825594 81.96364026 98 77 C99.18368176 75.56267214 100.38651016 74.1403801 101.625 72.75 C102.140625 72.15574219 102.65625 71.56148438 103.1875 70.94921875 C111.18781064 62.3454364 120.11329167 55.30343044 130 49 C130.70640625 48.52304687 131.4128125 48.04609375 132.140625 47.5546875 C137.97203709 44.0509399 144.39133423 44.06535766 151 45 C158.16298879 47.52742857 162.71341762 53.45272109 166.03515625 60.05859375 C168.69102764 66.79091891 169.89228742 75.35227651 167.109375 82.1875 C165.58308085 84.39419034 163.93325177 86.13293162 162 88 C161.52771973 88.45761719 161.05543945 88.91523438 160.56884766 89.38671875 C154.7830954 94.94904839 148.7825956 100.28392715 142.68359375 105.5 C142.12800781 105.995 141.57242188 106.49 141 107 C140.06172363 107.76944946 140.06172363 107.76944946 139.10449219 108.55444336 C136.20566915 111.92306405 135.07566572 115.46228836 133.64453125 119.62890625 C133.34045349 120.48238144 133.03637573 121.33585663 132.7230835 122.2151947 C131.0585299 126.90840692 129.44887623 131.62030167 127.83764648 136.33203125 C127.17862764 138.25404516 126.5192053 140.17592076 125.859375 142.09765625 C125.53526138 143.04609406 125.21114777 143.99453186 124.87721252 144.97171021 C122.99008778 150.4146301 120.89980788 155.65815561 118.453125 160.87109375 C113.30831649 171.78933751 113.30831649 171.78933751 114.08105469 183.43652344 C117.44419925 190.57208412 121.83922672 196.72014636 126.70263672 202.92871094 C129.93858164 207.25476695 132.63975401 211.83028504 135.37329102 216.48486328 C136.75587381 219.08967101 136.75587381 219.08967101 139 220 C139.05498657 219.12492798 139.05498657 219.12492798 139.11108398 218.23217773 C139.66539867 211.25493856 141.14728399 204.78354766 143.0625 198.0625 C143.37413086 196.96711914 143.68576172 195.87173828 144.00683594 194.74316406 C150.43810873 172.80004527 160.55633046 149.90380136 175 132 C175.66 131.67 176.32 131.34 177 131 C176.69255859 131.87011719 176.69255859 131.87011719 176.37890625 132.7578125 C175.97478516 133.92957031 175.97478516 133.92957031 175.5625 135.125 C175.16224609 136.27355469 175.16224609 136.27355469 174.75390625 137.4453125 C167.42955847 162.26460499 174.13626366 193.93546595 186.06884766 216.1706543 C190.01761879 223.27126275 194.43154283 230.07584056 198.83007812 236.90307617 C215.94664768 263.50949191 225.98597044 290.65900784 231 322 C231.32097656 323.93746094 231.32097656 323.93746094 231.6484375 325.9140625 C233.2176063 336.71631151 233.50833802 347.58599771 233.8515625 358.484375 C233.88813965 359.57194092 233.9247168 360.65950684 233.96240234 361.7800293 C234 365 234 365 233.80712891 368.10473633 C233.34871805 376.43074119 235.64845986 381.27542052 240.125 388.1875 C241.40345459 390.26544447 242.67941288 392.34492643 243.953125 394.42578125 C244.61634766 395.49393066 245.27957031 396.56208008 245.96289062 397.66259766 C249.41470045 403.31770796 252.64299622 409.09183327 255.875 414.875 C256.48746582 415.95676514 257.09993164 417.03853027 257.73095703 418.15307617 C258.29153809 419.15185791 258.85211914 420.15063965 259.4296875 421.1796875 C259.92710449 422.06382324 260.42452148 422.94795898 260.93701172 423.85888672 C262 426 262 426 262 428 C262.56887939 428.09216797 263.13775879 428.18433594 263.72387695 428.27929688 C271.16487254 429.61294141 278.09171658 431.92642529 285.1875 434.5 C286.40985352 434.94069824 287.63220703 435.38139648 288.89160156 435.83544922 C314.15022228 445.02991716 339.17753886 456.12659196 361 472 C357.5550281 461.55176284 351.64246252 453.21070032 343.69921875 445.66015625 C341.93457057 443.9360747 340.34804183 442.1289328 338.75 440.25 C335.90889138 436.93960112 332.88295379 433.91004898 329.75 430.875 C319.85613669 421.15021876 311.81730895 410.06613269 305 398 C304.51241211 397.14083984 304.02482422 396.28167969 303.52246094 395.39648438 C284.89682592 362.35642225 275.15109569 330.59607891 272.25 292.8125 C272.18479156 291.96384369 272.11958313 291.11518738 272.05239868 290.24081421 C270.21008193 265.75467434 270.21008193 265.75467434 271.8125 257 C271.96332031 256.113125 272.11414063 255.22625 272.26953125 254.3125 C273.06969267 251.77936867 273.98113714 250.68146386 276 249 C278.58861758 251.30420014 279.8764155 253.5083775 281.27734375 256.6640625 C281.70208984 257.60862305 282.12683594 258.55318359 282.56445312 259.52636719 C283.01755859 260.54891602 283.47066406 261.57146484 283.9375 262.625 C284.9240648 264.81067141 285.91240314 266.99554299 286.90234375 269.1796875 C287.41265137 270.30729492 287.92295898 271.43490234 288.44873047 272.59667969 C307.00171797 313.46950399 307.00171797 313.46950399 334 349 C335.21590554 350.38924218 336.42461134 351.78482855 337.625 353.1875 C342.0122871 358.2101873 346.64739406 362.87151879 351.69921875 367.2265625 C358.32468618 372.99840937 364.66784956 379.07244139 371.03076172 385.13037109 C372.66958175 386.68629519 374.31854632 388.22994112 375.97265625 389.76953125 C395.64619363 408.57007489 408.47402075 436.32819274 409.203125 463.6328125 C409.35093968 476.14778901 408.82770406 488.18962177 406.75390625 500.5390625 C406.56731445 501.66006348 406.56731445 501.66006348 406.37695312 502.80371094 C406.12286514 504.28413548 405.85029651 505.76149177 405.56054688 507.23535156 C404.7840357 511.33059082 404.7840357 511.33059082 406.3359375 515.03125 C407.00882813 515.5159375 407.68171875 516.000625 408.375 516.5 C409.11621094 517.06589844 409.85742188 517.63179687 410.62109375 518.21484375 C411.40613281 518.80394531 412.19117188 519.39304687 413 520 C414.48944346 521.342855 415.96858879 522.69721569 417.4375 524.0625 C425.11206869 531.16635713 432.1550188 534.78495869 442.375 536.8125 C453.34737252 539.18788516 463.82974512 542.43164312 474.40380859 546.19262695 C475.48484863 546.5712085 476.56588867 546.94979004 477.6796875 547.33984375 C478.63601074 547.68394287 479.59233398 548.02804199 480.57763672 548.38256836 C483.11546203 549.26192747 483.11546203 549.26192747 486 548 C491.39824525 537.2035095 485.45108303 520.30072977 482.62841797 509.48828125 C479.87398388 498.58183517 478.56945939 487.85265135 478.64160156 476.59741211 C478.60376331 474.30150681 478.52268726 472.23662187 478 470 C475.71791311 467.65337852 475.71791311 467.65337852 473 466 C469.24524504 460.63209105 467.42712464 455.45025439 467.62890625 448.91015625 C468 447 468 447 470 444 C471.86458783 443.0408266 473.76674931 442.15358155 475.6875 441.3125 C481.41103723 438.47136914 486.23838111 435.9865357 489 430 C489.45976214 426.74215422 489.66080969 423.62404329 489.73461914 420.34277344 C490.0903502 405.41925396 495.89157761 390.06965274 506 379 C519.57277868 367.93605287 540.35323724 365.97559101 557 363 C557.7842334 362.85900879 558.5684668 362.71801758 559.37646484 362.57275391 C572.66055356 360.26368395 584.74585028 361.60596266 597.8125 364.625 C598.97177002 364.88861328 600.13104004 365.15222656 601.32543945 365.42382812 C626.81949701 371.34856454 652.67352317 377.79791095 673 395 C673.56460938 395.44214844 674.12921875 395.88429688 674.7109375 396.33984375 C683.49606873 403.24244686 689.8976543 412.76169347 696 422 C696.60787354 422.88075195 696.60787354 422.88075195 697.22802734 423.77929688 C712.92036233 447.08920769 703.0348341 488.59149261 698.17431641 514.61621094 C696.74382739 521.81491457 695.00867148 528.94104367 693 536 C698.79299415 540.80621158 704.62975802 545.55485342 710.5625 550.1875 C711.55378906 550.96480469 712.54507813 551.74210938 713.56640625 552.54296875 C714.70543854 553.36960971 715.850521 554.18794836 717 555 C717.69176834 555.50804672 718.38353668 556.01609344 719.0962677 556.53953552 C725.90269887 561.12827777 731.05154305 561.76854694 739.1328125 561.3671875 C740.25066132 561.33650177 741.36851013 561.30581604 742.52023315 561.27420044 C746.05681784 561.17043719 749.59003818 561.0234549 753.125 560.875 C755.5363667 560.79660791 757.9478276 560.7210587 760.359375 560.6484375 C766.24107238 560.465149 772.12062839 560.24644992 778 560 C777.25669434 559.40179443 776.51338867 558.80358887 775.74755859 558.18725586 C774.76609863 557.39198486 773.78463867 556.59671387 772.7734375 555.77734375 C771.80325684 554.99351318 770.83307617 554.20968262 769.83349609 553.40209961 C761.90403304 546.67988809 754.89510431 538.92605306 753.5234375 528.3125 C753.27755168 521.79005516 753.22219481 515.92578371 757.30859375 510.58203125 C763.9531518 504.36714439 771.47687564 502.64923766 780.3359375 502.79296875 C798.09527635 504.17309332 812.59111266 517.43992906 825 529 C825.66773438 529.61359375 826.33546875 530.2271875 827.0234375 530.859375 C831.18186592 534.83109847 834.81190983 539.12525926 838.375 543.625 C838.85662598 544.21949951 839.33825195 544.81399902 839.83447266 545.42651367 C842.22319261 548.44196106 844.24038552 551.31351799 845.87109375 554.8046875 C848.59332581 560.23565413 851.12037659 563.981681 857.04736328 566.07763672 C864.73237452 567.99809682 872.55274677 569.12406693 880.37060547 570.35351562 C916.26875602 576.7478586 949.39495157 601.71442361 978.1875 622.625 C981.12328512 624.75238052 984.06108523 626.87694562 987 629 C987.7425 629.53866699 988.485 630.07733398 989.25 630.63232422 C999.26151171 637.85166988 1009.43184579 643.97893322 1020.4453125 649.55322266 C1030.03768494 654.43769209 1039.01570825 660.08694472 1048 666 C1062.05897142 675.30691049 1062.05897142 675.30691049 1076.5 684 C1077.08547607 684.33733154 1077.67095215 684.67466309 1078.27416992 685.0222168 C1080.15884469 686.07100413 1082.0665167 687.04402735 1084 688 C1084.8451416 688.42901611 1085.6902832 688.85803223 1086.56103516 689.30004883 C1095.0520016 693.25804377 1103.18310906 694.10962251 1112.375 694.6875 C1113.95288897 694.80059755 1115.53068729 694.91496594 1117.10839844 695.03051758 C1121.24040139 695.325805 1125.37372105 695.59127232 1129.50842285 695.84570312 C1131.96136699 695.99760756 1134.41379742 696.15618404 1136.86621094 696.31640625 C1147.90504118 697.0297492 1158.94550159 697.59520565 1170 698 C1170.67470337 698.02511658 1171.34940674 698.05023315 1172.04455566 698.07611084 C1204.26133177 699.22234814 1236.53173413 695.70881704 1268.5 692 C1269.75417725 691.85852539 1271.00835449 691.71705078 1272.30053711 691.57128906 C1285.13269677 689.98301715 1297.64537174 687.73185448 1308.75 680.8125 C1310.04780396 680.03918335 1310.04780396 680.03918335 1311.37182617 679.25024414 C1314.26097479 677.5209153 1317.13050917 675.76172954 1320 674 C1322.14635807 672.69923729 1324.29352396 671.3998068 1326.44140625 670.1015625 C1329.9089447 668.00247402 1333.37487457 665.90103148 1336.83398438 663.78808594 C1346.09316283 658.13398204 1355.41147992 652.58439568 1364.75 647.0625 C1376.79661853 639.94055622 1376.79661853 639.94055622 1388.6875 632.5625 C1448.14639439 594.86543021 1448.14639439 594.86543021 1471.93554688 600.06567383 C1472.61681641 600.22962646 1473.29808594 600.3935791 1474 600.5625 C1474.72767578 600.73740967 1475.45535156 600.91231934 1476.20507812 601.0925293 C1489.90092349 604.59773217 1503.46140664 610.25514769 1512 622 C1518.50830365 634.72697076 1522.76178333 648.85331487 1526.4375 662.625 C1526.76621094 663.85476563 1527.09492187 665.08453125 1527.43359375 666.3515625 C1528.5095344 673.28210434 1527.24787436 678.30185226 1523.9375 684.5 C1523.38964844 685.5415625 1522.84179688 686.583125 1522.27734375 687.65625 C1521.85582031 688.4296875 1521.43429687 689.203125 1521 690 C1515.91642671 689.41645788 1511.32248888 688.27433759 1506.4921875 686.56640625 C1505.80367706 686.32840805 1505.11516663 686.09040985 1504.40579224 685.84519958 C1502.22675742 685.09020279 1500.05093709 684.32637225 1497.875 683.5625 C1496.40774436 683.05348189 1494.94029791 682.54501343 1493.47265625 682.03710938 C1482.03977714 678.06675335 1482.03977714 678.06675335 1477 676 C1476.63648438 677.0621875 1476.27296875 678.124375 1475.8984375 679.21875 C1474.38865527 683.53103045 1472.71835933 687.76733134 1471 692 C1470.64808594 692.92683594 1470.29617188 693.85367188 1469.93359375 694.80859375 C1468.51841342 697.49595709 1467.70865684 698.5580782 1465 700 C1461.03210026 700.55295982 1457.03861537 700.49719733 1453.0390625 700.50512695 C1447.91871524 700.59959592 1447.91871524 700.59959592 1443.26171875 702.5703125 C1441.322548 704.61440833 1439.66624379 706.73046104 1438 709 C1436.84593909 710.09872923 1435.65654291 711.16134363 1434.4375 712.1875 C1431.86125385 714.39785905 1429.29707641 716.61842683 1426.7578125 718.87109375 C1394.74298738 747.14926833 1394.74298738 747.14926833 1375.70043945 751.68798828 C1366.87888026 753.86740298 1358.37046728 756.84620567 1349.8125 759.875 C1349.02224426 760.15453522 1348.23198853 760.43407043 1347.41778564 760.72207642 C1333.3711417 765.70613583 1319.41545483 770.92756778 1305.46948242 776.18530273 C1251.97282881 796.34968349 1251.97282881 796.34968349 1230.875 802.9375 C1229.88773926 803.24937256 1228.90047852 803.56124512 1227.88330078 803.88256836 C1226.9704834 804.15721924 1226.05766602 804.43187012 1225.1171875 804.71484375 C1224.36034668 804.94292725 1223.60350586 805.17101074 1222.82373047 805.40600586 C1213.39184989 807.39007688 1203.59893216 807.31087379 1193.9993515 807.63075256 C1191.3061982 807.72052252 1188.61320977 807.81431593 1185.92022705 807.90905762 C1180.19694003 808.10965069 1174.47347941 808.30498665 1168.75 808.5 C1162.1232356 808.72639967 1155.49655652 808.95502909 1148.87000275 809.18751526 C1146.24150866 809.27883088 1143.61292237 809.36700251 1140.98431396 809.45495605 C1123.16733846 809.52401523 1123.16733846 809.52401523 1105.875 812.9375 C1104.84117188 813.27652344 1103.80734375 813.61554687 1102.7421875 813.96484375 C1100.07782218 814.87568102 1100.07782218 814.87568102 1098.1328125 816.12890625 C1090.04133955 819.43366535 1081.97132896 815.10813088 1074.4375 812.125 C1073.14869928 811.62554468 1071.85963312 811.12677379 1070.5703125 810.62866211 C1061.55513949 807.12074622 1052.64744185 803.37434454 1043.84936523 799.35009766 C1030.7741669 793.45078296 1018.26971254 791.14121494 1004.1394043 789.86645508 C995.23317713 789.04182301 987.71670808 787.87566232 980 783 C979.27594971 782.55809326 978.55189941 782.11618652 977.8059082 781.66088867 C975.67828225 780.3301861 973.58701563 778.95588337 971.5 777.5625 C970.03338346 776.59769335 968.56593817 775.63414531 967.09765625 774.671875 C966.39914551 774.21361328 965.70063477 773.75535156 964.98095703 773.28320312 C961.05640516 770.74099896 957.04025675 768.35268022 953 766 C953.52207031 766.74378906 954.04414062 767.48757813 954.58203125 768.25390625 C960.35721106 776.82059154 964.88398659 785.65748426 969.10473633 795.09008789 C973.20481719 804.06314716 978.13621006 808.49579225 986.74023438 813.16601562 C996.27158234 818.84315731 999.68948579 830.47212815 1003.80703735 840.23205566 C1014.38877779 865.23563992 1024.37935192 888.59903518 1047.58886719 904.17041016 C1052.48219102 907.50904081 1056.97514951 911.24536828 1061.5 915.0625 C1072.89833252 924.56424633 1084.67446815 930.83548079 1098.06201172 937.07763672 C1108.06679519 941.83751072 1117.26676444 947.59687277 1126.58203125 953.56640625 C1139.7071872 961.96367115 1153.54723419 970.01807395 1169.49609375 970.17578125 C1170.77935547 970.19962891 1172.06261719 970.22347656 1173.38476562 970.24804688 C1176.02049447 970.29340844 1178.65480315 970.32175471 1181.29101562 970.34179688 C1202.6476218 970.79529518 1223.5071009 976.57898722 1244.21728516 981.36914062 C1266.46195585 986.50122414 1286.57015376 989.14000548 1309.35009766 986.93212891 C1330.75890867 984.87507942 1352.16677594 984.65746214 1373.65449905 984.62985229 C1376.08455508 984.62507944 1378.51452036 984.61446029 1380.94454956 984.60229492 C1421.37502635 984.42315208 1459.28063729 987.43495119 1496.3125 1004.8125 C1497.93494572 1005.56691793 1499.55767296 1006.32073068 1501.18066406 1007.07397461 C1505.32534363 1009.0003373 1509.46512166 1010.9369839 1513.60333252 1012.87719727 C1515.89836487 1013.95238547 1518.19471753 1015.02468669 1520.49169922 1016.09570312 C1600.25357841 1053.29174846 1600.25357841 1053.29174846 1635 1073 C1635.95970703 1073.54430664 1636.91941406 1074.08861328 1637.90820312 1074.64941406 C1668.83985747 1092.30294174 1668.83985747 1092.30294174 1671.59887695 1100.85668945 C1675.14418584 1119.80024802 1671.27549187 1140.76988209 1661 1157 C1659.31369025 1158.90150827 1657.57524847 1160.57998582 1655.67456055 1162.26196289 C1650.07507809 1168.07370157 1649.25578133 1176.26791618 1648.5 1183.9375 C1647.36692098 1195.38798167 1644.15256411 1203.9435358 1637.5 1213.3125 C1631.14663355 1222.53008091 1625.59948152 1232.13294267 1620.18310547 1241.92431641 C1619.22294514 1243.60885688 1618.17269093 1245.24181299 1617.09765625 1246.85546875 C1615.79248496 1248.88980295 1615.79248496 1248.88980295 1616.29248047 1250.91015625 C1617.02993887 1253.08843226 1617.93268376 1254.68289796 1619.22265625 1256.58203125 C1619.90134766 1257.59789307 1619.90134766 1257.59789307 1620.59375 1258.63427734 C1621.0784375 1259.35309082 1621.563125 1260.0719043 1622.0625 1260.8125 C1635.25594486 1280.84810671 1635.25594486 1280.84810671 1637.5 1290.75 C1641.14783109 1305.85361055 1657.24526483 1317.44517635 1667.87695312 1327.81542969 C1686.45551034 1345.97739455 1699.59572827 1360.57517441 1700.3125 1387.8125 C1700.23190774 1392.97660377 1699.62888497 1396.55111775 1697 1401 C1686.28556011 1406.35721994 1668.78764585 1402.93589093 1657.02172852 1402.20043945 C1654.80445146 1402.06199747 1652.58686359 1401.92991423 1650.36914062 1401.79882812 C1646.24466143 1401.55175327 1642.12227584 1401.28157479 1638 1401 C1636.89479004 1400.92475098 1635.78958008 1400.84950195 1634.65087891 1400.77197266 C1633.1975415 1400.65861572 1633.1975415 1400.65861572 1631.71484375 1400.54296875 C1630.89491943 1400.48004639 1630.07499512 1400.41712402 1629.23022461 1400.35229492 C1612.58671773 1397.72322208 1596.34835368 1375.53136481 1585.25048828 1364.1340332 C1564.36393545 1342.72901984 1543.43694648 1336.22020407 1515.21313477 1327.89868164 C1512.19882843 1327.00757629 1509.18725925 1326.10764035 1506.17578125 1325.20703125 C1505.27048172 1324.94340286 1504.36518219 1324.67977448 1503.43244934 1324.40815735 C1482.64553258 1318.17964909 1467.36220004 1300.55065953 1457 1282 C1453.09852505 1274.59813631 1450.26903968 1267.43843157 1452 1259 C1458.19409483 1243.83945338 1477.79249667 1234.9322875 1491.9375 1228.8125 C1495.9320265 1227.13795653 1499.95434059 1225.54656853 1504 1224 C1504 1220.36410721 1502.99643147 1218.88199072 1501.19140625 1215.74609375 C1500.60939453 1214.72708984 1500.02738281 1213.70808594 1499.42773438 1212.65820312 C1498.81220703 1211.59537109 1498.19667969 1210.53253906 1497.5625 1209.4375 C1496.3552627 1207.33214939 1495.1482215 1205.22668632 1493.94140625 1203.12109375 C1493.40201416 1202.1870874 1492.86262207 1201.25308105 1492.30688477 1200.29077148 C1491.50220982 1198.88029791 1490.7262145 1197.45242899 1490 1196 C1480.55049693 1196.67428615 1471.44183134 1198.6318632 1462.1875 1200.5625 C1459.05711744 1201.21525862 1455.92549075 1201.86150298 1452.79296875 1202.50390625 C1451.73036079 1202.72887535 1451.73036079 1202.72887535 1450.64628601 1202.95838928 C1447.04208717 1203.6970497 1443.68102003 1204.1709922 1440 1204 C1439.84144531 1204.57105469 1439.68289063 1205.14210938 1439.51953125 1205.73046875 C1438.03861835 1210.87684561 1436.32831372 1215.87106244 1434.38671875 1220.86328125 C1433.93901123 1222.01739502 1433.49130371 1223.17150879 1433.0300293 1224.3605957 C1432.69011963 1225.23159912 1432.35020996 1226.10260254 1432 1227 C1403.12574284 1228.59669266 1374.24188281 1229.79480854 1345.34350586 1230.85986328 C1339.34849678 1231.08100872 1333.35377585 1231.30915426 1327.35909557 1231.53901863 C1322.63414274 1231.71913763 1317.90902935 1231.89473815 1313.18386269 1232.06914902 C1310.97521531 1232.15132518 1308.7666224 1232.23498285 1306.55809593 1232.32034683 C1290.69938906 1232.93066722 1274.87007496 1233.10166987 1259 1233 C1259.86043411 1234.72073227 1259.86043411 1234.72073227 1260.73825073 1236.47622681 C1261.76385168 1238.52726665 1262.78896754 1240.57854162 1263.81298828 1242.63037109 C1265.48558593 1245.98124171 1267.16351845 1249.32886674 1268.8671875 1252.6640625 C1269.67542969 1254.25347656 1269.67542969 1254.25347656 1270.5 1255.875 C1270.9846875 1256.82117187 1271.469375 1257.76734375 1271.96875 1258.7421875 C1273 1261 1273 1261 1273 1263 C1281.25 1263 1289.5 1263 1298 1263 C1298.32274902 1265.33666748 1298.64549805 1267.67333496 1298.97802734 1270.08081055 C1300.04586244 1277.80493933 1301.12072566 1285.52807827 1302.19904137 1293.25075054 C1302.85254416 1297.93257546 1303.50368296 1302.61470376 1304.14941406 1307.29760742 C1304.77277919 1311.817667 1305.40236058 1316.33682109 1306.03624344 1320.85541725 C1306.27687342 1322.57865479 1306.51526988 1324.30220574 1306.75138474 1326.02606773 C1307.08272592 1328.44232093 1307.42202346 1330.8573332 1307.76318359 1333.2722168 C1307.85885117 1333.98359802 1307.95451874 1334.69497925 1308.05308533 1335.42791748 C1309.03388625 1342.25279326 1310.67384364 1346.07713021 1315.625 1350.875 C1316.44226562 1351.67679688 1317.25953125 1352.47859375 1318.1015625 1353.3046875 C1320.20051442 1355.25654306 1322.31181152 1357.12553388 1324.48974609 1358.9831543 C1329.92301907 1363.72988252 1334.97759406 1368.85279344 1340.0625 1373.96484375 C1341.1045974 1375.00881066 1342.14691909 1376.05255372 1343.18945312 1377.09608459 C1345.90744446 1379.81785922 1348.6224169 1382.54262523 1351.33673096 1385.26806641 C1354.11717018 1388.05881073 1356.90051029 1390.84665871 1359.68359375 1393.63476562 C1365.12520842 1399.08704358 1370.56363103 1404.54249109 1376 1410 C1380.16986217 1407.25141887 1384.10186927 1404.37248227 1388 1401.25 C1399.24871809 1392.45034922 1413.00746585 1382.92263703 1427.7890625 1383.57421875 C1440.15659093 1385.21419515 1451.61443973 1391.41089937 1462.85961914 1396.47119141 C1469.52935081 1399.47073486 1476.20164556 1402.42765312 1483 1405.125 C1483.66169189 1405.39554199 1484.32338379 1405.66608398 1485.00512695 1405.94482422 C1495.48041402 1410.01317955 1503.61119521 1410.25719619 1514.4375 1407.3125 C1516.73161587 1406.73635442 1519.02721721 1406.16609355 1521.32421875 1405.6015625 C1522.45134277 1405.32344727 1523.5784668 1405.04533203 1524.73974609 1404.75878906 C1569.41066926 1394.36211172 1610.18359373 1401.0492556 1649 1425 C1684.59949509 1448.05946881 1684.59949509 1448.05946881 1690 1465 C1691.24027179 1473.68190255 1687.91565909 1481.81123139 1682.75 1488.75 C1681.171875 1490.734375 1681.171875 1490.734375 1679 1493 C1678.56333008 1493.59264648 1678.12666016 1494.18529297 1677.67675781 1494.79589844 C1674.56896765 1498.35981156 1671.70274408 1500.10893434 1667.00878906 1500.60644531 C1662.72879856 1500.852658 1658.45230635 1500.83576011 1654.16677856 1500.78338623 C1649.05229711 1500.7248445 1643.93863824 1500.78961041 1638.82421875 1500.8359375 C1637.72778549 1500.84295685 1636.63135223 1500.8499762 1635.50169373 1500.85720825 C1613.015472 1501.04534548 1590.53387394 1502.4909548 1568.09100342 1503.81762695 C1566.17108294 1503.93090465 1564.25105562 1504.04240439 1562.33087158 1504.15112305 C1540.34870513 1505.39629293 1519.5215894 1509.78987274 1498.296875 1515.40969849 C1495.88310879 1516.03004128 1493.46045892 1516.5987384 1491.03320312 1517.16381836 C1489.41128925 1517.56295288 1487.78953914 1517.96275356 1486.16796875 1518.36328125 C1485.42048874 1518.52674042 1484.67300873 1518.69019958 1483.90287781 1518.85861206 C1478.99550632 1520.11490648 1476.72672115 1521.82530032 1474.04725647 1526.13908386 C1473.01570272 1528.01081775 1472.00891227 1529.86215355 1471.1328125 1531.8125 C1468.9183532 1536.3740722 1466.07642772 1540.29631825 1463 1544.3125 C1462.48663086 1544.98297363 1461.97326172 1545.65344727 1461.44433594 1546.34423828 C1459.97602837 1548.24029467 1458.49216915 1550.1226885 1457 1552 C1455.80503906 1553.51207031 1455.80503906 1553.51207031 1454.5859375 1555.0546875 C1449.62569146 1560.96141159 1444.99987864 1563.95738608 1438 1567 C1436.04082707 1567.96230889 1434.09527397 1568.94931042 1432.1496582 1569.9387207 C1406.36314819 1583.05065883 1406.36314819 1583.05065883 1395.29223633 1579.96737671 C1394.02851004 1579.49354696 1392.77101579 1579.00283596 1391.51953125 1578.49755859 C1390.83260696 1578.22943548 1390.14568268 1577.96131237 1389.4379425 1577.68506432 C1381.64244597 1574.57169948 1374.16719743 1570.83518843 1366.6875 1567.0390625 C1365.17963819 1566.28138227 1363.67141017 1565.52443044 1362.1628418 1564.76815796 C1358.23315902 1562.79577498 1354.30836924 1560.81385221 1350.38464355 1558.82965088 C1346.42860469 1556.8311779 1342.4680474 1554.84170375 1338.5078125 1552.8515625 C1332.66547371 1549.91459405 1326.82571452 1546.97258395 1320.98828125 1544.02587891 C1313.00296414 1539.99565755 1305.0030601 1535.99484869 1297 1532 C1296.06497147 1531.53279037 1295.12994293 1531.06558075 1294.1665802 1530.58421326 C1283.37619331 1525.2036655 1272.38211644 1520.46761553 1261.1875 1516 C1209.77853336 1495.45176347 1158.9094025 1471.36462487 1110.54345703 1444.40625 C1107.92402611 1442.95799485 1105.29089926 1441.53808564 1102.65234375 1440.125 C1070.71324629 1422.99624401 1040.36196743 1403.22216503 1011 1382 C1009.55361489 1380.96191978 1008.10699011 1379.92417343 1006.66015625 1378.88671875 C991.22590468 1367.79972011 975.94107647 1356.52523502 960.85205078 1344.97265625 C954.97010772 1340.47707007 949.03648319 1336.05985486 943.0625 1331.6875 C935.87624179 1326.42213162 928.83392132 1321.00942629 921.85888672 1315.46875 C918.25714746 1312.62293133 914.6261906 1309.81454404 911 1307 C896.26380482 1295.54573924 896.26380482 1295.54573924 889.81542969 1290.43017578 C887.81669495 1288.85559427 885.80260705 1287.30168248 883.7890625 1285.74609375 C882.3588807 1284.62302502 880.92918441 1283.4993377 879.5 1282.375 C878.84112793 1281.87282959 878.18225586 1281.37065918 877.50341797 1280.85327148 C868.9251545 1274.03737945 864.27751297 1264.18764082 858.9375 1254.8125 C857.61415709 1252.50469904 856.29011056 1250.19731986 854.96484375 1247.890625 C854.63318207 1247.31284805 854.30152039 1246.73507111 853.95980835 1246.13978577 C849.15497012 1237.77691399 844.26042379 1229.46750127 839.30859375 1221.19091797 C838.22896407 1219.38334395 837.15991906 1217.56945234 836.09375 1215.75390625 C831.78314731 1208.64352486 826.53143124 1202.3672621 821.24609375 1195.97265625 C816.97400582 1190.78646993 812.98414586 1185.40874145 809 1180 C808.2886792 1180.24234375 807.5773584 1180.4846875 806.84448242 1180.734375 C803.62706072 1181.82760985 800.4073303 1182.91388061 797.1875 1184 C796.06794922 1184.3815625 794.94839844 1184.763125 793.79492188 1185.15625 C792.72177734 1185.5171875 791.64863281 1185.878125 790.54296875 1186.25 C789.0583313 1186.75273437 789.0583313 1186.75273437 787.54370117 1187.265625 C785 1188 785 1188 782 1188 C781.63874023 1187.34217529 781.27748047 1186.68435059 780.90527344 1186.0065918 C756.44317892 1141.18914133 756.44317892 1141.18914133 720.81152344 1105.36767578 C717.77928296 1103.07837509 714.79717023 1100.7257761 711.8125 1098.375 C711.22823242 1097.91601318 710.64396484 1097.45702637 710.04199219 1096.98413086 C701.83270789 1090.52491462 693.79994517 1083.86313997 685.84667969 1077.0925293 C682.33672778 1074.10990638 678.77822927 1071.19799613 675.1875 1068.3125 C671.25882578 1065.11831705 667.62910728 1061.78945732 664.14453125 1058.1171875 C662.26875471 1056.26532796 660.34861969 1054.5603738 658.35058594 1052.84399414 C654.14977821 1049.17899783 650.1809106 1045.32581717 646.24609375 1041.37890625 C645.54154556 1040.67531479 644.83699738 1039.97172333 644.11109924 1039.24681091 C642.63346633 1037.76985352 641.15707543 1036.29165258 639.68188477 1034.81225586 C637.44333519 1032.56834915 635.19949527 1030.32983296 632.95507812 1028.09179688 C631.51009596 1026.64615382 630.06542408 1025.20020055 628.62109375 1023.75390625 C627.96048447 1023.0953212 627.29987518 1022.43673615 626.61924744 1021.75819397 C622.21523353 1017.33229546 618.06827762 1012.73482886 614 1008 C613.05067046 1006.9169234 612.10036012 1005.83470448 611.1484375 1004.75390625 C595.91914922 987.29508058 582.55306914 968.45828249 569.78100586 949.15478516 C563.03062707 938.98190885 556.00794095 928.99632849 549 919 C548.44779785 918.21173828 547.8955957 917.42347656 547.32666016 916.61132812 C541.82044413 908.75862492 536.25386517 900.95273314 530.625 893.1875 C524.7992439 885.15064835 519.09552513 877.03262389 513.41796875 868.890625 C510.71706038 865.01889078 507.99369055 861.16382344 505.26000977 857.31518555 C499.34503767 848.98066948 493.57037077 840.56900414 488 832 C487.525625 831.27055176 487.05125 830.54110352 486.5625 829.78955078 C476.74863535 814.63109123 467.79589474 799.35973035 460.52783203 782.81494141 C449.64110118 758.23123898 435.38676041 735.9590858 420 714 C419.16154541 712.80117187 419.16154541 712.80117187 418.30615234 711.578125 C416.63001692 709.19120807 414.94251532 706.81282407 413.25 704.4375 C412.7557251 703.73616943 412.2614502 703.03483887 411.75219727 702.31225586 C404.89871327 692.78671224 396.65950828 684.49199499 388.36108398 676.23071289 C386.93160283 674.80662508 385.50759489 673.37721956 384.08398438 671.94726562 C379.45050516 667.32023523 374.7746078 662.81567626 369.80297852 658.5534668 C366.96666715 656.10966866 364.23833078 653.55236604 361.5 651 C357.41800101 647.21262044 353.30226124 643.48229355 349.08984375 639.83984375 C346.35629441 637.43329844 343.67885994 634.96696804 341 632.5 C337.69973124 629.46109823 334.39050653 626.438439 331 623.5 C327.11637176 620.13204024 323.33319156 616.65776967 319.55151367 613.17651367 C316.49367384 610.36318641 313.41497828 607.57671829 310.3125 604.8125 C297.37981617 593.17517384 284.76934782 581.48273408 273.875 567.875 C258.60665207 549.09829056 240.57267277 532.48311703 223.4375 515.4375 C218.8449886 510.86878037 214.25424778 506.29830725 209.66768074 501.72361946 C207.8557596 499.91809313 206.04081927 498.1156422 204.22569275 496.31333923 C198.60344784 490.71602352 193.12289896 485.06440504 188 479 C186.54554483 477.39231627 185.08779105 475.78760285 183.625 474.1875 C179.74771132 469.89175183 176.07337804 465.46550528 172.4375 460.96484375 C170.23564227 458.28662257 167.98426111 455.66677695 165.70483398 453.05517578 C158.70066324 445.01080397 152.25101024 436.63963878 146 428 C145.44022461 427.22881836 144.88044922 426.45763672 144.30371094 425.66308594 C136.03335347 414.21572907 128.45314211 402.49800272 121.34667969 390.29638672 C120.13938182 388.23767683 118.90940201 386.19599239 117.6640625 384.16015625 C110.42849724 372.25078179 104.05189115 359.87642747 97.56564331 347.54998779 C96.98787643 346.4520993 96.98787643 346.4520993 96.3984375 345.33203125 C96.01640167 344.6060675 95.63436584 343.88010376 95.24075317 343.13214111 C92.12864011 337.22638961 88.96040597 331.35294389 85.75 325.5 C79.7012467 314.46998172 73.73867239 303.39454843 67.78222656 292.31445312 C66.01998408 289.03716491 64.25638922 285.7606089 62.4921875 282.484375 C61.91597656 281.41421143 61.33976563 280.34404785 60.74609375 279.24145508 C59.58008637 277.07687455 58.4134174 274.91265027 57.24609375 272.7487793 C54.33675647 267.35330315 51.44025501 261.95170205 48.5703125 256.53515625 C41.45379505 243.14048897 33.98582269 230.01467829 26.18359375 217.0078125 C23.19641197 212.02609491 20.25736505 207.01949446 17.34765625 201.9921875 C16.57206133 200.6553317 15.79642692 199.31849881 15.02075195 197.98168945 C13.8942956 196.03981209 12.76978603 194.09694977 11.65170288 192.15023804 C10.62230009 190.35860637 9.58534106 188.57154549 8.546875 186.78515625 C7.95745117 185.76301025 7.36802734 184.74086426 6.76074219 183.68774414 C4.273135 179.89045247 1.54435859 177.10982058 -2.37890625 174.8359375 C-3.3690271 174.25017944 -3.3690271 174.25017944 -4.37915039 173.65258789 C-5.45990845 173.02018188 -5.45990845 173.02018188 -6.5625 172.375 C-74.53899768 131.69150348 -74.53899768 131.69150348 -87 113 C-88.35534344 104.41090494 -85.74504946 96.81256869 -80.75 89.875 C-80.1725 89.25625 -79.595 88.6375 -79 88 C-74.39583374 88.60875755 -70.43516676 89.84722956 -66.125 91.5625 C-64.97257812 92.01753906 -63.82015625 92.47257812 -62.6328125 92.94140625 C-61.32957031 93.46541016 -61.32957031 93.46541016 -60 94 C-61.45019531 92.76636719 -61.45019531 92.76636719 -62.9296875 91.5078125 C-86.8922446 71.0147376 -86.8922446 71.0147376 -91.1875 59.9375 C-90.94108638 56.07701989 -89.70395124 54.38244383 -87.078125 51.609375 C-81.81676801 47.53479026 -74.56341843 45.58341497 -68 45 C-66.75605469 44.88140625 -65.51210937 44.7628125 -64.23046875 44.640625 C-59.98701162 44.65419321 -58.02783685 46.02594141 -55.03125 48.91015625 C-54.5259375 49.43480469 -54.020625 49.95945312 -53.5 50.5 C-52.96375 51.02464844 -52.4275 51.54929687 -51.875 52.08984375 C-50.56582431 53.3756413 -49.28035556 54.68550163 -48 56 C-49.47531407 52.85318649 -51.24594522 49.9289239 -53.07226562 46.97509766 C-66.33151011 25.44256837 -66.33151011 25.44256837 -66 15 C-63.85065086 11.92950123 -62.54925112 11.18308371 -59 10 C-56.23789626 9.87679413 -53.51203541 9.81486071 -50.75 9.8125 C-49.64205078 9.79413086 -49.64205078 9.79413086 -48.51171875 9.77539062 C-42.25661227 9.75884272 -37.06323486 10.1372767 -32.2265625 14.50390625 C-31.34532548 15.5113185 -30.4784889 16.5314739 -29.625 17.5625 C-28.68541988 18.643517 -27.743986 19.72292534 -26.80078125 20.80078125 C-26.33623535 21.33783691 -25.87168945 21.87489258 -25.39306641 22.42822266 C-22.11359522 26.12840413 -18.52414507 29.53579439 -15 33 C-15.01571045 32.28457031 -15.0314209 31.56914062 -15.04760742 30.83203125 C-15.11040747 27.55476961 -15.14913303 24.2776351 -15.1875 21 C-15.21263672 19.87464844 -15.23777344 18.74929688 -15.26367188 17.58984375 C-15.32147386 11.00041751 -14.94994932 5.94275505 -12 0 C-8.10327456 -1.94836272 -4.11483388 -0.97456592 0 0 Z " fill="#0E2A40" transform="translate(195,301)"/>
<path d="M0 0 C0.85389313 0.00054382 1.70778625 0.00108765 2.58755493 0.00164795 C31.44377281 0.08584265 59.26272379 6.16333212 85.0625 19.375 C85.0625 19.705 85.0625 20.035 85.0625 20.375 C84.12736572 20.44231323 84.12736572 20.44231323 83.17333984 20.51098633 C71.25100405 21.39302389 59.66709345 22.37528973 48.0625 25.375 C46.89267578 25.66697266 46.89267578 25.66697266 45.69921875 25.96484375 C45.15910156 26.10019531 44.61898437 26.23554688 44.0625 26.375 C44.0625 27.035 44.0625 27.695 44.0625 28.375 C45.07183594 28.51228516 45.07183594 28.51228516 46.1015625 28.65234375 C49.83116844 29.56260377 53.04741457 31.18912038 56.4375 32.9375 C57.13866943 33.29175049 57.83983887 33.64600098 58.56225586 34.01098633 C62.04892448 35.78346423 65.5020282 37.60251405 68.91796875 39.5078125 C69.54203613 39.85255615 70.16610352 40.1972998 70.80908203 40.55249023 C72.50552751 41.49604965 74.19260709 42.4563936 75.87890625 43.41796875 C86.20135257 48.61172917 97.48078685 51.13868423 108.78436279 53.0871582 C110.87615618 53.44849601 112.96479979 53.82476728 115.05322266 54.20507812 C117.81580901 54.70798452 120.57892364 55.20769745 123.34277344 55.70361328 C151.5356203 60.7922408 176.49811231 69.74096524 200.0625 86.375 C200.64773438 86.78379395 201.23296875 87.19258789 201.8359375 87.61376953 C240.07351554 114.73910211 265.58217988 157.04194243 273.99682617 202.82836914 C274.93744004 208.41369116 275.20577613 213.71272742 275.0625 219.375 C271.96074902 216.32372959 268.97997889 213.21074168 266.0690918 209.97412109 C242.27686599 183.56671035 242.27686599 183.56671035 210.875 169.375 C207.25815595 169.09083303 207.25815595 169.09083303 205.0625 170.375 C203.55426055 175.20633847 204.63126316 178.08012843 206.58203125 182.57421875 C213.41580753 195.50249735 224.87369434 207.12585956 236.0625 216.375 C237.40054688 217.54482422 237.40054688 217.54482422 238.765625 218.73828125 C245.77596771 224.78516063 252.99862561 229.77379279 261.0625 234.375 C262.07441406 234.97441406 263.08632813 235.57382812 264.12890625 236.19140625 C282.35800249 246.5004229 302.5411831 253.64489812 322.01617432 261.23974609 C348.2225493 271.46410819 372.15566199 282.97030882 395.0625 299.375 C395.82884766 299.9220459 396.59519531 300.4690918 397.38476562 301.03271484 C407.44793654 308.24601205 417.17354349 315.70230234 426.42944336 323.92993164 C427.59046193 324.9573003 428.75873901 325.97649158 429.93188477 326.98999023 C451.13701584 345.32822713 467.27258738 366.04731342 481.0625 390.375 C481.62807617 391.34566406 481.62807617 391.34566406 482.20507812 392.3359375 C496.68382734 417.18712399 504.98883525 446.04523755 509.0625 474.375 C509.17964355 475.16745117 509.29678711 475.95990234 509.41748047 476.77636719 C512.79441841 500.83140508 512.01030831 526.00372183 509.6875 550.125 C509.62446686 550.79851501 509.56143372 551.47203003 509.49649048 552.16595459 C508.71194204 560.30892671 508.71194204 560.30892671 508.0625 563.375 C507.4025 563.705 506.7425 564.035 506.0625 564.375 C505.88710693 563.49577881 505.71171387 562.61655762 505.53100586 561.71069336 C494.07365338 503.6505965 494.07365338 503.6505965 458.0625 458.375 C441.97190987 447.69067721 423.5745673 441.47962445 405.4375 435.25 C386.89092881 428.87928331 368.94611795 421.40404034 351.0625 413.375 C350.04414062 412.92108887 349.02578125 412.46717773 347.9765625 411.99951172 C320.32859286 399.60644796 297.93862363 382.49159793 275.6796875 362.203125 C273.15334692 359.91235958 270.61281155 357.63905209 268.0625 355.375 C267.57942383 354.94429199 267.09634766 354.51358398 266.59863281 354.06982422 C250.99387512 340.23493521 235.37495599 330.68292646 215.0625 325.375 C219.71066183 353.19522005 225.20407113 372.95136997 248.921875 390.2421875 C258.72791932 397.12420597 269.11929167 402.82865511 279.76416016 408.30395508 C289.95798573 413.60816797 298.98266152 419.95967955 307.3125 427.875 C308.15167969 428.65037109 308.15167969 428.65037109 309.0078125 429.44140625 C315.97234893 435.97266507 321.95581694 443.3788601 328 450.75 C328.61407715 451.49677002 329.2281543 452.24354004 329.86083984 453.01293945 C333.00143152 456.83838113 336.11674963 460.68060802 339.1875 464.5625 C355.08066461 484.47967863 371.08173445 500.84644319 394.0625 512.375 C394.0625 512.705 394.0625 513.035 394.0625 513.375 C333.08688967 511.30099965 253.73573682 492.49479636 210.2421875 446.421875 C205.72256586 441.55470844 201.34043314 436.56770097 196.98828125 431.55078125 C193.95529793 428.12406379 190.84156056 424.77262345 187.72875977 421.41845703 C185.3165544 418.81898592 182.91666454 416.2126335 180.546875 413.57421875 C168.04668407 399.67856625 155.1087009 385.78634404 139.95263672 374.76025391 C137.77201978 373.16211124 135.62306242 371.52527079 133.47265625 369.88671875 C107.52579687 350.24851772 82.42448991 341.40303594 50 339.5625 C49.01185303 339.49716064 48.02370605 339.43182129 47.00561523 339.36450195 C41.59675288 339.11041917 37.6362895 339.0745535 33.0625 342.375 C30.54978511 345.92151759 30.7579143 348.93737119 31.23828125 353.1171875 C32.56126788 358.34643323 34.89707151 363.12136984 37.26708984 367.95361328 C39.32168844 372.2308549 40.76294944 375.50871967 40.0625 380.375 C36.30723117 384.13026883 31.13764893 383.56048539 26.0625 383.625 C5.99643631 383.54662651 -9.4445837 374.12093051 -24.9375 362.375 C-36.7890203 353.33128902 -36.7890203 353.33128902 -49.9375 346.375 C-42.6831454 367.40259927 -27.98579706 383.6539155 -13 399.6875 C5.2113256 419.62626645 21.23277324 442.16155218 21.25 470 C21.26224609 471.04929687 21.27449219 472.09859375 21.28710938 473.1796875 C21.28904297 474.18515625 21.29097656 475.190625 21.29296875 476.2265625 C21.29707764 477.14260254 21.30118652 478.05864258 21.30541992 479.00244141 C21.0625 481.375 21.0625 481.375 19.0625 484.375 C18.67618408 483.95839111 18.28986816 483.54178223 17.8918457 483.11254883 C-0.51917368 463.19917108 -0.51917368 463.19917108 -21.16357422 445.70019531 C-22.90051926 444.40262613 -24.62434076 443.0890285 -26.34765625 441.7734375 C-36.62654822 434.01026762 -47.44841405 427.08813807 -58.26416016 420.10400391 C-96.8959217 395.11860343 -124.04634161 369.52410716 -138.28125 325.0859375 C-144.67541376 305.18106079 -151.19449244 287.90260888 -165.77734375 272.421875 C-188.16162216 248.26106655 -193.79388873 208.56476663 -193.125 176.91796875 C-190.43487368 126.08579014 -170.14638074 88.05266437 -132.9375 53.375 C-129.34966618 50.27141369 -125.66271123 47.31151804 -121.9375 44.375 C-120.93847656 43.570625 -119.93945312 42.76625 -118.91015625 41.9375 C-84.42596991 14.46549347 -44.08004445 -0.10615109 0 0 Z " fill="#3BE675" transform="translate(570.9375,116.625)"/>
<path d="M0 0 C4.29241231 4.11320623 7.74803195 8.3590829 10.00390625 13.8828125 C12.23717344 17.6299051 13.73251845 17.95722388 17.875 19.125 C31.89873642 23.68415711 43.78089008 31.07409658 55.359375 40.11328125 C55.9474292 40.57234863 56.5354834 41.03141602 57.14135742 41.50439453 C58.55434695 42.65340013 59.89566185 43.88938594 61.22265625 45.13671875 C64.58054419 47.36320086 67.54493477 47.31525938 71.4375 47.3125 C79.26827396 47.60615402 86.08389996 48.06462822 91.8515625 53.9609375 C102.59742097 67.77704124 113.52736362 89.8772853 111.75 107.8125 C110.18294146 114.75938156 107.02273701 122.3037483 102.125 127.5546875 C100.08111139 130.9108455 100.3069585 134.30597259 100.25 138.125 C99.61119128 154.78252261 95.66462972 171.38974957 87.40234375 186.00390625 C85.86051848 188.99278913 85.67540389 189.48137615 86.453125 192.93359375 C86.88109375 193.88363281 87.3090625 194.83367187 87.75 195.8125 C88.83050975 201.6858423 88.89449493 206.66231617 86.04296875 212.01953125 C83.45844114 215.49557087 80.71042717 218.65737806 77.75 221.8125 C76.90646973 222.73796631 76.90646973 222.73796631 76.04589844 223.68212891 C66.6843163 233.88186923 53.31162368 248.17267751 38.75 249.8125 C35.15794155 249.76589645 31.57208072 249.66682769 27.98193359 249.54760742 C20.27633671 249.46910834 13.86146135 251.66810239 6.73828125 254.40234375 C-1.12854832 257.31949848 -9.15564237 256.9647579 -17.4375 256.9375 C-18.59314453 256.94136719 -19.74878906 256.94523437 -20.93945312 256.94921875 C-27.60070306 256.9417384 -34.11838092 256.64566338 -40.73828125 255.88647461 C-44.55053493 255.77419692 -46.85426087 257.14792199 -50.25 258.8125 C-70.87187077 260.33459046 -95.78065911 240.56072685 -110.9375 228.0625 C-113.99123414 225.25671863 -115.89216989 222.80611798 -117.25 218.8125 C-117.30223628 217.43786096 -117.34284475 216.0627553 -117.375 214.6875 C-117.84575925 208.91349371 -121.28002647 205.54918222 -124.77734375 201.1484375 C-134.43093218 188.57440426 -140.1895761 171.4356639 -143.2265625 156.046875 C-144.05240336 152.14239222 -145.46266878 149.30984582 -147.75 146 C-155.52560964 134.58369179 -154.69647255 121.21372033 -152.5625 107.75390625 C-150.68383126 98.00553038 -147.33888293 88.84075352 -143.25 79.8125 C-142.56357422 78.20568359 -142.56357422 78.20568359 -141.86328125 76.56640625 C-140.0284353 73.43428423 -138.75542152 72.51144571 -135.5 71 C-134.61054688 70.58363281 -133.72109375 70.16726562 -132.8046875 69.73828125 C-130.25 68.8125 -130.25 68.8125 -126.625 68.6875 C-121.64811392 67.3971962 -120.26463136 64.13737073 -117.47265625 59.984375 C-109.82511044 49.07082983 -99.34985889 38.26143817 -87.84716797 31.57666016 C-80.66456944 27.39013365 -77.35866346 23.63976422 -73.75390625 15.90625 C-69.77139522 7.71365588 -63.74476206 2.74929602 -55.2578125 -0.2421875 C-40.14178497 -4.93809628 -13.3520515 -11.04826525 0 0 Z " fill="#0C2341" transform="translate(556.25,166.1875)"/>
<path d="M0 0 C2.58861758 2.30420014 3.8764155 4.5083775 5.27734375 7.6640625 C5.70208984 8.60862305 6.12683594 9.55318359 6.56445312 10.52636719 C7.24411133 12.06019043 7.24411133 12.06019043 7.9375 13.625 C8.9240648 15.81067141 9.91240314 17.99554299 10.90234375 20.1796875 C11.41265137 21.30729492 11.92295898 22.43490234 12.44873047 23.59667969 C31.00171797 64.46950399 31.00171797 64.46950399 58 100 C59.21590554 101.38924218 60.42461134 102.78482855 61.625 104.1875 C66.0122871 109.2101873 70.64739406 113.87151879 75.69921875 118.2265625 C82.32468618 123.99840937 88.66784956 130.07244139 95.03076172 136.13037109 C96.66958175 137.68629519 98.31854632 139.22994112 99.97265625 140.76953125 C119.64619363 159.57007489 132.47402075 187.32819274 133.203125 214.6328125 C133.64980392 251.21242335 123.30167218 284.10863706 110.5625 318.125 C110.23266113 319.01396973 109.90282227 319.90293945 109.56298828 320.81884766 C109.25474121 321.62370605 108.94649414 322.42856445 108.62890625 323.2578125 C108.36150635 323.9605127 108.09410645 324.66321289 107.81860352 325.38720703 C107 327 107 327 105 328 C104.91087845 327.39596848 104.8217569 326.79193695 104.72993469 326.16960144 C99.10526707 286.95913544 99.10526707 286.95913544 92 248 C91.84112305 247.19997559 91.68224609 246.39995117 91.51855469 245.57568359 C87.77831542 226.91779528 81.78474227 210.04931681 67.69921875 196.66015625 C65.93457057 194.9360747 64.34804183 193.1289328 62.75 191.25 C59.90889138 187.93960112 56.88295379 184.91004898 53.75 181.875 C43.85613669 172.15021876 35.81730895 161.06613269 29 149 C28.51241211 148.14083984 28.02482422 147.28167969 27.52246094 146.39648438 C8.89682592 113.35642225 -0.84890431 81.59607891 -3.75 43.8125 C-3.81520844 42.96384369 -3.88041687 42.11518738 -3.94760132 41.24081421 C-5.78991807 16.75467434 -5.78991807 16.75467434 -4.1875 8 C-4.03667969 7.113125 -3.88585937 6.22625 -3.73046875 5.3125 C-2.93030733 2.77936867 -2.01886286 1.68146386 0 0 Z " fill="#3AE77A" transform="translate(471,550)"/>
<path d="M0 0 C0 3.04534265 -0.57279529 4.81574097 -1.5 7.6875 C-8.65325522 35.89176343 -0.48166777 67.64739744 14 92 C16.88834238 96.66970271 19.85638407 101.28742378 22.83007812 105.90307617 C39.94664768 132.50949191 49.98597044 159.65900784 55 191 C55.21398437 192.29164063 55.42796875 193.58328125 55.6484375 194.9140625 C56.89867847 203.52079379 57.32905399 212.12883749 57.6875 220.8125 C57.76037231 222.51237061 57.76037231 222.51237061 57.8347168 224.24658203 C58.07516617 231.2508876 57.82315638 238.03947362 57 245 C54.26116936 243.63058468 53.98884961 241.74124616 52.87939453 239.01513672 C51.35897501 235.5310882 49.38736619 232.31988325 47.4375 229.0625 C47.00058838 228.32668701 46.56367676 227.59087402 46.11352539 226.83276367 C39.41233231 215.59851643 32.3996526 204.56023907 25.30078125 193.57421875 C19.79212548 185.03416507 14.3791769 176.43452524 9 167.8125 C7.67582656 165.69137797 6.3516065 163.57028503 5.02734375 161.44921875 C4.35815918 160.37720215 3.68897461 159.30518555 2.99951172 158.20068359 C1.08670528 155.13879197 -0.82906998 152.07878379 -2.74609375 149.01953125 C-11.26234954 135.42413414 -19.73437102 121.80127314 -28.08129883 108.10107422 C-29.44693753 105.89387956 -30.8320301 103.71435391 -32.25268555 101.54345703 C-32.6239003 100.96661667 -32.99511505 100.38977631 -33.37757874 99.79545593 C-34.41707036 98.18217497 -35.46915247 96.57702669 -36.52197266 94.97241211 C-38.95056567 90.08834869 -38.09941 86.26101027 -36.62158203 81.16699219 C-35.87243069 78.5552611 -35.21938536 75.92452041 -34.55859375 73.2890625 C-28.31466219 49.0856268 -18.16544247 18.16544247 0 0 Z " fill="#39E576" transform="translate(371,432)"/>
<path d="M0 0 C1.17828369 0.54962402 1.17828369 0.54962402 2.38037109 1.11035156 C12.11376961 5.72059363 20.96328895 11.11314123 29.625 17.5 C30.63747803 18.2420166 30.63747803 18.2420166 31.67041016 18.99902344 C37.21689851 23.18908648 42.08580518 27.4085628 43.9375 34.375 C44.15921875 35.16777344 44.3809375 35.96054688 44.609375 36.77734375 C46.03988945 43.35964336 46.36999557 49.73156367 46.375 56.4375 C46.38724609 57.30117187 46.39949219 58.16484375 46.41210938 59.0546875 C46.42372576 64.15040721 46.22669224 68.68138398 44.1875 73.4375 C41.87890625 75.37890625 41.87890625 75.37890625 38.75 77 C38.16742432 77.31026123 37.58484863 77.62052246 36.98461914 77.94018555 C34.73106738 79.1305574 32.45898395 80.28169794 30.1875 81.4375 C27.93397884 82.60761065 25.6814547 83.77964256 23.4296875 84.953125 C19.79758252 86.84492485 16.16362092 88.73270057 12.51977539 90.60180664 C11.38789795 91.18309326 10.25602051 91.76437988 9.08984375 92.36328125 C7.56605103 93.14312378 7.56605103 93.14312378 6.01147461 93.9387207 C3.16120486 95.40696928 3.16120486 95.40696928 0.44384766 97.16430664 C-1.8125 98.4375 -1.8125 98.4375 -3.81640625 97.8828125 C-6.23390747 96.1323713 -8.49008175 94.26316628 -10.75 92.3125 C-20.95022047 83.89327041 -31.81737378 78.22441271 -43.94433594 73.21240234 C-46.9121414 71.98137587 -49.86110275 70.70728719 -52.8125 69.4375 C-53.60978534 60.26023688 -54.02682597 51.07854771 -54.375 41.875 C-54.44062134 40.19120239 -54.44062134 40.19120239 -54.50756836 38.47338867 C-54.58808555 36.24887851 -54.65857536 34.02398149 -54.71875 31.79882812 C-54.78330583 29.48423264 -54.87333889 27.17025362 -54.984375 24.85742188 C-55.02175781 23.70693359 -55.05914063 22.55644531 -55.09765625 21.37109375 C-55.16351929 19.81926392 -55.16351929 19.81926392 -55.23071289 18.23608398 C-54.69322405 14.63933294 -53.39168482 13.41868922 -50.6875 11.0625 C-48.77451704 9.7835805 -46.81073823 8.57863227 -44.8125 7.4375 C-43.71550781 6.81101563 -42.61851562 6.18453125 -41.48828125 5.5390625 C-27.69921746 -1.78010462 -14.6791622 -7.07143189 0 0 Z " fill="#F0F0F1" transform="translate(577.8125,189.5625)"/>
<path d="M0 0 C9.45734397 2.58068046 17.58498804 11.98136145 24 19 C24.69867187 19.71285156 25.39734375 20.42570312 26.1171875 21.16015625 C31.57107216 27.54492484 32.03322505 34.01571768 31.5546875 42.078125 C30.09226599 57.49217115 25.10214463 82.05810168 13.02734375 92.74609375 C3.37488033 99.98141274 -9.87392066 107.4948398 -22 109 C-25.2899561 108.49439089 -26.79468389 107.54217595 -28.99609375 105.078125 C-29.54861816 104.47081543 -30.10114258 103.86350586 -30.67041016 103.23779297 C-31.54511963 102.25383545 -31.54511963 102.25383545 -32.4375 101.25 C-33.68150079 99.88090784 -34.92764348 98.51375922 -36.17578125 97.1484375 C-36.80822754 96.45588867 -37.44067383 95.76333984 -38.09228516 95.04980469 C-41.52946796 91.35661466 -45.12703612 87.82603489 -48.73608398 84.30175781 C-50.17532337 82.88583997 -51.58854929 81.44362053 -53 80 C-53.80179688 79.19820313 -54.60359375 78.39640625 -55.4296875 77.5703125 C-57 75 -57 75 -56.92578125 71.71484375 C-55.89247745 67.56854874 -54.59375095 63.59383889 -53.1875 59.5625 C-51.25595048 53.95370694 -49.84626516 48.61401007 -49.20703125 42.703125 C-49.08368408 41.64150146 -48.96033691 40.57987793 -48.83325195 39.48608398 C-48.61633253 37.42034363 -48.45188957 35.34819961 -48.34838867 33.27368164 C-47.82218371 28.44466754 -47.12525228 25.90484823 -43.2565918 22.79394531 C-40.27334656 20.96101446 -37.16012373 19.4303713 -33.99237061 17.94454956 C-31.38263595 16.70731804 -28.83969952 15.35703963 -26.2875061 14.00611877 C-23.14475238 12.34871125 -19.97720065 10.73998237 -16.8125 9.125 C-14.86817382 8.13073406 -12.92435707 7.13550735 -10.98161316 6.13815308 C-9.2490293 5.24894375 -7.51482427 4.36289522 -5.78051758 3.47705078 C-2.90592195 2.00916509 -2.90592195 2.00916509 0 0 Z " fill="#F0F0F1" transform="translate(622,266)"/>
<path d="M0 0 C1.05316406 0.15210938 2.10632813 0.30421875 3.19140625 0.4609375 C10.2013596 1.68907495 16.4342864 3.85339213 22.9609375 6.62109375 C23.73848389 6.94621948 24.51603027 7.27134521 25.31713867 7.60632324 C27.2132425 8.3998886 29.10688385 9.19933344 31 10 C31.28774081 16.22545603 31.57246431 22.45104035 31.85449219 28.67675781 C31.95068454 30.79105276 32.04767591 32.90531153 32.14550781 35.01953125 C32.28665055 38.07282302 32.42484099 41.12623692 32.5625 44.1796875 C32.60624756 45.11239471 32.64999512 46.04510193 32.69506836 47.006073 C32.8957258 51.51708048 33.05618267 56.02885133 33.13549805 60.54370117 C33.15162643 61.34958176 33.16775482 62.15546234 33.18437195 62.98576355 C33 65 33 65 31.26953125 67.12109375 C30.05330078 67.77271484 30.05330078 67.77271484 28.8125 68.4375 C24.31157651 71.14443838 20.34996308 74.02741228 16.375 77.4375 C15.82038086 77.91219727 15.26576172 78.38689453 14.69433594 78.87597656 C7.602585 85.00699119 1.43961928 91.34694639 -4 99 C-14.22382667 97.08059494 -24.21174216 94.40757888 -34.25390625 91.71533203 C-36.66207298 91.08802686 -39.07269026 90.51210189 -41.5 89.96484375 C-50.23434155 87.86314281 -50.23434155 87.86314281 -52.47265625 85.33984375 C-53.3125 83.5 -53.3125 83.5 -54 80 C-54.17426514 79.41516846 -54.34853027 78.83033691 -54.52807617 78.2277832 C-55.61792031 73.08301973 -55.26669258 67.6575553 -55.29516602 62.41088867 C-55.30668089 60.93390316 -55.32712536 59.4569591 -55.35668945 57.98022461 C-55.39960539 55.83418822 -55.41556582 53.68938228 -55.42578125 51.54296875 C-55.44036377 50.26446045 -55.45494629 48.98595215 -55.4699707 47.66870117 C-53.50656009 32.34185891 -33.55627123 15.87391539 -22.01953125 6.75390625 C-14.909552 1.47287502 -9.03214041 -1.69748501 0 0 Z " fill="#F0F0F0" transform="translate(489,195)"/>
<path d="M0 0 C5.80509689 4.41023262 11.19284592 9.33872922 16.5234375 14.3046875 C17.19117188 14.91828125 17.85890625 15.531875 18.546875 16.1640625 C30.56565251 27.64322142 41.31135236 42.40856473 49.23730469 56.9675293 C50.49792287 59.25832236 51.80962021 61.50963176 53.14453125 63.7578125 C65.9944028 85.55238149 78.19817627 108.77872966 84.8828125 133.2890625 C85.47350435 135.37221255 85.47350435 135.37221255 86.6640625 137.3828125 C87.5234375 139.3046875 87.5234375 139.3046875 86.5234375 142.3046875 C86.13414062 141.66144531 85.74484375 141.01820313 85.34375 140.35546875 C77.63401016 127.90264011 68.65448507 116.85555683 58.5234375 106.3046875 C57.98702637 105.74104492 57.45061523 105.17740234 56.89794922 104.59667969 C39.66900258 86.5766841 19.64895952 72.90528962 -2.2265625 61.06640625 C-48.19538891 36.14820828 -48.19538891 36.14820828 -54.4765625 17.3046875 C-55.75676046 1.88744637 -55.75676046 1.88744637 -51.16796875 -4.11328125 C-35.72789739 -18.55491843 -15.12858903 -10.35616347 0 0 Z " fill="#36E479" transform="translate(1003.4765625,815.6953125)"/>
<path d="M0 0 C1.92529297 1.34179688 1.92529297 1.34179688 3.7421875 3.21875 C4.41636719 3.90453125 5.09054687 4.5903125 5.78515625 5.296875 C6.81962891 6.38742187 6.81962891 6.38742187 7.875 7.5 C8.89787109 8.54414063 8.89787109 8.54414063 9.94140625 9.609375 C13.30201238 13.06599845 16.54567552 16.59638582 19.6953125 20.24609375 C22.29083244 23.25092711 25.03135444 25.9198037 28 28.5625 C31.94586814 32.52183527 31.94586814 32.52183527 32.375 36.3125 C31.92125 37.529375 31.4675 38.74625 31 40 C30.6803125 40.88429688 30.360625 41.76859375 30.03125 42.6796875 C21.09394276 65.92876378 21.09394276 65.92876378 11.56640625 70.73046875 C10.23954646 71.23700306 8.90424226 71.72181594 7.5625 72.1875 C6.84368652 72.44160645 6.12487305 72.69571289 5.38427734 72.95751953 C-5.48921189 76.66082683 -15.77235182 77.18660349 -27.1875 77.3125 C-28.29270996 77.33038574 -29.39791992 77.34827148 -30.53662109 77.36669922 C-46.4570405 77.34998863 -54.50725471 71.40813275 -65.6875 60.625 C-70.44669987 55.79143763 -74.32034447 50.67955949 -78 45 C-74.31881862 37.34028646 -70.19039464 30.00550081 -65.875 22.6875 C-65.25496094 21.62982422 -64.63492187 20.57214844 -63.99609375 19.48242188 C-62.33541699 16.65212868 -60.6717278 13.82377893 -59 11 C-58.55640137 10.08154297 -58.11280273 9.16308594 -57.65576172 8.21679688 C-56 6 -56 6 -53.41894531 5.28051758 C-52.39897461 5.23564209 -51.37900391 5.1907666 -50.328125 5.14453125 C-49.19552246 5.08072266 -48.06291992 5.01691406 -46.89599609 4.95117188 C-45.69281738 4.90541016 -44.48963867 4.85964844 -43.25 4.8125 C-40.78889 4.67625824 -38.32794739 4.53695675 -35.8671875 4.39453125 C-34.68092773 4.33088379 -33.49466797 4.26723633 -32.27246094 4.20166016 C-24.38759442 3.7157679 -16.57522748 2.65005244 -8.875 0.875 C-5.5969451 0.13479406 -3.29558041 -0.33840567 0 0 Z " fill="#F0F0F1" transform="translate(563,343)"/>
<path d="M0 0 C5.77563444 0.44370108 11.38184661 1.94945239 17 3.3125 C17.91974609 3.53397705 18.83949219 3.7554541 19.78710938 3.98364258 C35.61819868 7.8216076 35.61819868 7.8216076 43 10 C44.26505371 10.36810791 44.26505371 10.36810791 45.55566406 10.74365234 C48 12 48 12 49.25097656 14.22045898 C49.54456055 15.13641846 49.83814453 16.05237793 50.140625 16.99609375 C50.48464355 18.0212207 50.82866211 19.04634766 51.18310547 20.10253906 C51.53518066 21.20307617 51.88725586 22.30361328 52.25 23.4375 C55.06720699 31.75861712 58.05287073 39.83465165 61.875 47.75 C62.24399414 48.51626709 62.61298828 49.28253418 62.99316406 50.07202148 C64.48683713 53.11467612 65.94052504 55.91461271 67.8828125 58.703125 C69 61 69 61 68.29199219 63.24560547 C66.81985089 66.38405939 65.17463112 69.36229324 63.4453125 72.3671875 C63.10249237 72.96500031 62.75967224 73.56281311 62.40646362 74.17874146 C61.31568509 76.07926201 60.22044325 77.97716509 59.125 79.875 C58.39683495 81.14175442 57.66896761 82.40868001 56.94140625 83.67578125 C55.59314977 86.02304636 54.2428495 88.369088 52.89111328 90.71435547 C50.92011529 94.13879273 48.9587396 97.56854019 47 101 C33.07264823 100.04516974 12.54762988 98.25559516 2.54296875 87.3125 C1.73947696 86.22160344 0.95518976 85.11638112 0.1875 84 C-0.2355542 83.39333496 -0.6586084 82.78666992 -1.09448242 82.16162109 C-9.48044829 69.69114515 -15.35243383 55.54247996 -19 41 C-19.26425781 40.03964844 -19.52851563 39.07929688 -19.80078125 38.08984375 C-21.50573362 29.2527242 -16.72526996 22.09792768 -12 15 C-8.34071665 9.76651413 -4.52194993 4.52194993 0 0 Z " fill="#F0F0F0" transform="translate(436,285)"/>
<path d="M0 0 C-3.30997298 1.83976654 -6.59652655 2.73084404 -10.25 3.6875 C-20.04960369 6.68334749 -24.73794309 11.84225566 -29.72265625 20.58203125 C-30.48045483 22.01651847 -31.20916781 23.46804816 -31.87109375 24.94921875 C-34.32122927 30.16601448 -38.13683695 32.22523576 -43 35.12890625 C-57.7043179 44.29995869 -69.45814668 57.68722003 -79 72 C-81.20703125 72.625 -81.20703125 72.625 -83.8125 73 C-87.83622095 73.68513575 -90.59817536 74.66124556 -94 77 C-94.66 77 -95.32 77 -96 77 C-96.27070313 77.85078125 -96.54140625 78.7015625 -96.8203125 79.578125 C-98.01803935 83.05232605 -99.42675183 86.37325556 -100.875 89.75 C-107.16388329 105.28690042 -113.11724586 127.56012735 -106.75390625 143.83203125 C-104.96460243 147.16522315 -102.97670264 149.92022824 -100.4453125 152.71875 C-98.27181383 156.1493533 -97.60951224 159.82510743 -96.6875 163.75 C-92.58994464 180.07627025 -87.07965058 195.76349788 -76.0625 208.8125 C-72.98842341 212.54284013 -72.49163189 215.07435293 -72.26953125 219.8125 C-71.52603483 225.84667385 -67.26442267 230.03604146 -62.8125 233.8125 C-36.53410528 253.73704479 -36.53410528 253.73704479 -6 261 C-4.948125 260.484375 -3.89625 259.96875 -2.8125 259.4375 C0.47039502 257.87561996 2.80964879 257.98849601 6.40234375 258.39453125 C24.1341001 260.12488434 42.59531219 260.81843903 59.25 253.8125 C64.30838383 251.81616454 68.77647809 251.80741994 74.125 251.9375 C85.30946405 252.20234994 91.92329382 249.63050168 101 243 C101.66 243.33 102.32 243.66 103 244 C78.06664003 264.40598672 41.85072632 271.42198091 10.48730469 268.7890625 C-17.07460241 265.86800932 -43.00837964 253.98304936 -64 236 C-65.24910156 234.95199219 -65.24910156 234.95199219 -66.5234375 233.8828125 C-81.39933654 221.02088133 -91.80758553 204.67885804 -100 187 C-100.4846875 185.98164063 -100.969375 184.96328125 -101.46875 183.9140625 C-105.21242616 175.58210032 -107.18838363 166.91330696 -109 158 C-109.27034058 156.76503784 -109.27034058 156.76503784 -109.54614258 155.50512695 C-111.06435084 148.08330189 -111.34760088 140.87519142 -111.3125 133.3125 C-111.30831055 132.07733643 -111.30412109 130.84217285 -111.29980469 129.56958008 C-111.18565452 120.3228094 -110.30041296 111.95160697 -108 103 C-107.74476563 101.81535156 -107.48953125 100.63070312 -107.2265625 99.41015625 C-101.74195742 75.83641789 -88.89775291 55.07778985 -72 38 C-71.28714844 37.2265625 -70.57429688 36.453125 -69.83984375 35.65625 C-53.7612032 18.58584283 -24.29554991 -0.67487639 0 0 Z " fill="#E4ECE8" transform="translate(512,163)"/>
<path d="M0 0 C30.91388885 -1.55432961 62.05165225 14.04169558 84.75561523 34.09887695 C92.35874603 41.00331415 99.29056704 48.43585056 105 57 C104.505 57.99 104.505 57.99 104 59 C103.45730469 58.72285156 102.91460938 58.44570312 102.35546875 58.16015625 C101.64003906 57.79792969 100.92460938 57.43570313 100.1875 57.0625 C99.47980469 56.70285156 98.77210938 56.34320313 98.04296875 55.97265625 C95.04564993 54.54563448 93.08739725 53.99717736 89.734375 54.10546875 C77.77559772 54.35167887 72.55200318 50.28510589 63.85888672 42.55712891 C54.0026821 34.30090707 39.93767776 26.95187531 27.5 23.8125 C22.63888196 21.2951353 21.30477776 17.7539512 18.7734375 13.0234375 C15.78908253 7.93557242 12.14813946 4.08370533 6.4921875 2.13671875 C4.32477226 1.63732997 2.20868144 1.25052174 0 1 C0 0.67 0 0.34 0 0 Z " fill="#ECF0EF" transform="translate(543,161)"/>
<path d="M0 0 C-3.30997298 1.83976654 -6.59652655 2.73084404 -10.25 3.6875 C-20.04960369 6.68334749 -24.73794309 11.84225566 -29.72265625 20.58203125 C-30.48045483 22.01651847 -31.20916781 23.46804816 -31.87109375 24.94921875 C-34.32122927 30.16601448 -38.13683695 32.22523576 -43 35.12890625 C-57.7043179 44.29995869 -69.45814668 57.68722003 -79 72 C-81.20703125 72.625 -81.20703125 72.625 -83.8125 73 C-87.83622095 73.68513575 -90.59817536 74.66124556 -94 77 C-94.66 77 -95.32 77 -96 77 C-96.26941406 77.84046875 -96.53882813 78.6809375 -96.81640625 79.546875 C-98.05945385 83.17345611 -99.47932821 86.70683429 -100.9375 90.25 C-103.30855439 96.07962278 -105.36767201 101.9145667 -107 108 C-107.33 108 -107.66 108 -108 108 C-107.20930198 93.24030359 -101.11435026 79.72558183 -94 67 C-93.62214355 66.32404785 -93.24428711 65.6480957 -92.85498047 64.95166016 C-87.39590421 55.36471214 -81.15079357 47.21336595 -73.37695312 39.39599609 C-72.14747446 38.149514 -70.9538546 36.8678951 -69.765625 35.58203125 C-53.71602266 18.53687087 -24.24664718 -0.67351798 0 0 Z " fill="#EDF0EE" transform="translate(512,163)"/>
<path d="M0 0 C10.73379359 16.10069038 7.83476708 46.9943796 4.5 65.125 C-2.26566606 97.42631317 -20.21679603 124.71117403 -45 146 C-45.66 145.67 -46.32 145.34 -47 145 C-46.55720703 144.57291748 -46.11441406 144.14583496 -45.65820312 143.70581055 C-29.56615492 129.86405446 -29.56615492 129.86405446 -22.375 111.1875 C-22.53801126 107.73423506 -22.92221101 105.19701461 -24.1953125 101.97265625 C-25.25051567 98.07455132 -24.39475372 96.76086718 -22.5 93.25 C-16.25225329 80.72584718 -11.19481404 66.74695106 -10.87890625 52.6484375 C-10.64583319 43.23811257 -10.19725997 37.46769826 -4 30 C1.78136604 20.13554419 1.43363847 11.05949678 0 0 Z " fill="#EBEFEE" transform="translate(666,257)"/>
<path d="M0 0 C12.34502051 1.73263446 23.72999943 8.89733283 33 17 C33.81984375 17.7115625 34.6396875 18.423125 35.484375 19.15625 C38.02364854 21.40312234 40.51917119 23.68886958 43 26 C43.66773438 26.61359375 44.33546875 27.2271875 45.0234375 27.859375 C53.65012464 36.09874149 60.61905116 45.96954576 67.5625 55.625 C67.97999512 56.20459473 68.39749023 56.78418945 68.82763672 57.38134766 C72.97809896 63.23058772 72.97809896 63.23058772 74 66 C73.505 67.485 73.505 67.485 73 69 C72.40574219 68.45472656 71.81148437 67.90945313 71.19921875 67.34765625 C64.41399031 61.17447019 57.4426051 55.26098689 50.21875 49.60546875 C47.52125326 47.46038491 45.26472453 45.19185623 43.0625 42.5625 C35.5599458 33.75369753 26.51295214 26.09968672 17.75390625 18.5703125 C15.06231039 16.16046498 12.55983538 13.57094323 10.03125 10.9921875 C7.30601284 8.31935875 4.40933292 5.87694838 1.46875 3.4453125 C0.9840625 2.96835937 0.499375 2.49140625 0 2 C0 1.34 0 0.68 0 0 Z " fill="#6FFA65" transform="translate(977,804)"/>
<path d="M0 0 C6.07916885 0.99251736 8.38138942 3.15026862 12.20703125 7.87109375 C14.46804486 10.55573954 16.9963838 12.71531496 19.6640625 14.984375 C22.4984502 17.43010084 25.25253867 19.95777773 28 22.5 C28.54374268 23.00265381 29.08748535 23.50530762 29.64770508 24.02319336 C32.81466383 26.95744064 35.96790804 29.90591074 39.11328125 32.86328125 C39.81130859 33.51941406 40.50933594 34.17554688 41.22851562 34.8515625 C42.57620371 36.11967762 43.92264455 37.38912013 45.26757812 38.66015625 C48.53160507 41.73375378 51.83194001 44.74540166 55.21875 47.68359375 C58.00209424 50.10061048 60.64214335 52.57981775 63.1875 55.25 C65.94777348 58.06992575 68.59480069 59.99694158 72 62 C73.375 64 73.375 64 74 66 C73.505 67.485 73.505 67.485 73 69 C72.40574219 68.45472656 71.81148437 67.90945313 71.19921875 67.34765625 C64.41399031 61.17447019 57.4426051 55.26098689 50.21875 49.60546875 C47.52125326 47.46038491 45.26472453 45.19185623 43.0625 42.5625 C35.5599458 33.75369753 26.51295214 26.09968672 17.75390625 18.5703125 C15.06231039 16.16046498 12.55983538 13.57094323 10.03125 10.9921875 C7.30601284 8.31935875 4.40933292 5.87694838 1.46875 3.4453125 C0.9840625 2.96835937 0.499375 2.49140625 0 2 C0 1.34 0 0.68 0 0 Z " fill="#51F98F" transform="translate(977,804)"/>
<path d="M0 0 C5.12829737 1.31189003 7.36637068 3.23733555 11 7 C13.41562051 9.31504292 15.86473176 11.59402033 18.3125 13.875 C18.97967041 14.49777832 19.64684082 15.12055664 20.33422852 15.76220703 C24.24048704 19.39737626 28.19945805 22.951154 32.24609375 26.4296875 C34.94029278 28.8418657 37.44429733 31.43552885 39.98046875 34.01171875 C42.62898478 36.61925194 45.4127748 39.04417483 48.23828125 41.45703125 C49.11033203 42.22080078 49.11033203 42.22080078 50 43 C50.59167969 43.47824219 51.18335938 43.95648437 51.79296875 44.44921875 C52.19128906 44.96097656 52.58960938 45.47273437 53 46 C52.57543945 48.09692383 52.57543945 48.09692383 52 50 C51.55720703 49.58226318 51.11441406 49.16452637 50.65820312 48.73413086 C48.60685083 46.80044849 46.55343683 44.86896851 44.5 42.9375 C43.80390625 42.28072266 43.1078125 41.62394531 42.390625 40.94726562 C38.24461806 37.05078688 34.0287369 33.25924517 29.73242188 29.52954102 C27.73407158 27.76521399 25.85138289 25.91750371 24 24 C20.88374222 20.84146741 17.65290057 17.89960609 14.296875 15 C11.33856486 12.42405648 8.41176425 9.81586735 5.5 7.1875 C4.95891602 6.70692139 4.41783203 6.22634277 3.86035156 5.73120117 C2.5348484 4.52881703 1.26228223 3.26859364 0 2 C0 1.34 0 0.68 0 0 Z " fill="#61FA79" transform="translate(984,806)"/>
<path d="M0 0 C3.71191122 1.3200811 6.41766617 2.93995627 9.5 5.375 C22.13935731 14.7476222 36.31569076 22.37307142 51 28 C50.67 28.66 50.34 29.32 50 30 C33.76305489 27.48529148 11.39414599 14.60900934 1.23828125 1.7734375 C0.82964844 1.18820312 0.42101562 0.60296875 0 0 Z " fill="#D9E8E0" transform="translate(445,395)"/>
<path d="M0 0 C0.66 0.33 1.32 0.66 2 1 C0.67389682 4.15619054 -0.38381157 5.56738712 -3.43994141 7.10644531 C-4.14051666 7.46651672 -4.84109192 7.82658813 -5.56289673 8.1975708 C-6.31815643 8.57065369 -7.07341614 8.94373657 -7.8515625 9.328125 C-9.01261002 9.91892853 -9.01261002 9.91892853 -10.19711304 10.52166748 C-12.66761709 11.77559603 -15.14602614 13.01291425 -17.625 14.25 C-19.30263051 15.09787653 -20.97972103 15.94682242 -22.65625 16.796875 C-26.76467319 18.87703808 -30.88026146 20.94234395 -35 23 C-35.33 21.68 -35.66 20.36 -36 19 C-35.01604248 18.49549316 -34.03208496 17.99098633 -33.01831055 17.47119141 C-29.36649185 15.59818141 -25.71590025 13.72279066 -22.06567383 11.84667969 C-20.48592949 11.03515719 -18.90585352 10.22427994 -17.32543945 9.4140625 C-15.05332252 8.24909397 -12.78240994 7.08180707 -10.51171875 5.9140625 C-9.80536789 5.55253082 -9.09901703 5.19099915 -8.3712616 4.81851196 C-5.47291707 3.32557605 -2.71595745 1.8106383 0 0 Z " fill="#1C314E" transform="translate(619,264)"/>
<path d="M0 0 C1 3 1 3 -0.27587891 5.87915039 C-4.03893427 12.57023018 -4.03893427 12.57023018 -5.48583984 15.0793457 C-6.61717864 17.04888386 -7.72135851 19.03198598 -8.82421875 21.01757812 C-9.54006076 22.27435356 -10.25745929 23.53024396 -10.9765625 24.78515625 C-11.62705566 25.92863525 -12.27754883 27.07211426 -12.94775391 28.25024414 C-15.15218566 31.20390996 -16.4951999 32.04674004 -20 33 C-17.83796801 27.1973549 -14.68870246 21.9702737 -11.60522461 16.62426758 C-10.56200078 14.81163259 -9.52988047 12.99296522 -8.49804688 11.17382812 C-7.51094727 9.45776367 -7.51094727 9.45776367 -6.50390625 7.70703125 C-5.60393921 6.13659058 -5.60393921 6.13659058 -4.68579102 4.53442383 C-3 2 -3 2 0 0 Z " fill="#1D324E" transform="translate(504,351)"/>
<path d="M0 0 C0.99 0 1.98 0 3 0 C1.24715107 5.40180849 -0.75214719 10.69122944 -2.7890625 15.99023438 C-4.41880522 20.28271332 -5.79810761 24.56802181 -7 29 C-7.33 29 -7.66 29 -8 29 C-7.673483 22.90501605 -6.38337844 17.48066649 -4.5625 11.6875 C-4.34505127 10.99398437 -4.12760254 10.30046875 -3.90356445 9.5859375 C-2.82709199 6.25255416 -1.69697392 3.07033887 0 0 Z " fill="#D7E8D8" transform="translate(412,242)"/>
<path d="M0 0 C0.84765625 1.62890625 0.84765625 1.62890625 1 4 C-0.79186781 6.19677554 -2.50578958 8.01965943 -4.5625 9.9375 C-5.08908203 10.44990234 -5.61566406 10.96230469 -6.15820312 11.49023438 C-9.63330479 14.83773133 -13.2633776 17.94889328 -17 21 C-17.66 20.67 -18.32 20.34 -19 20 C-18.53102295 19.53625977 -18.0620459 19.07251953 -17.57885742 18.59472656 C-15.44575618 16.48247339 -13.31660041 14.36628554 -11.1875 12.25 C-10.44951172 11.52039063 -9.71152344 10.79078125 -8.95117188 10.0390625 C-8.23896484 9.33007812 -7.52675781 8.62109375 -6.79296875 7.890625 C-5.81106567 6.91657715 -5.81106567 6.91657715 -4.80932617 5.92285156 C-3.03957201 4.04205494 -1.50625069 2.09529866 0 0 Z " fill="#BFD9D3" transform="translate(638,382)"/>
<path d="M0 0 C0.66 0.33 1.32 0.66 2 1 C0.48922551 5.39131785 -2.91662276 7.31736792 -6.625 9.75 C-7.54152344 10.36681641 -7.54152344 10.36681641 -8.4765625 10.99609375 C-9.97895328 12.00551256 -11.48876909 13.0038647 -13 14 C-13 10.445249 -11.92661744 9.18437066 -9.63671875 6.56640625 C-6.81182033 3.86286384 -3.58032096 1.58861924 0 0 Z " fill="#1B314D" transform="translate(475,193)"/>
<path d="M0 0 C5.44876003 1.72066106 10.71169451 3.84705349 16 6 C15.67 6.66 15.34 7.32 15 8 C10.94180817 7.34496718 7.46028718 6.05440879 3.6875 4.4375 C2.61886719 3.98246094 1.55023438 3.52742188 0.44921875 3.05859375 C-0.35902344 2.70925781 -1.16726563 2.35992187 -2 2 C-1.34 1.34 -0.68 0.68 0 0 Z " fill="#CCEBDA" transform="translate(480,417)"/>
<path d="M0 0 C-3.41256746 1.8743905 -6.89925359 2.95655044 -10.625 4.0625 C-14.90890201 5.28726304 -14.90890201 5.28726304 -19 7 C-19.99 6.34 -20.98 5.68 -22 5 C-19.27318889 4.15820605 -16.54398557 3.32636931 -13.8125 2.5 C-12.65911133 2.14228516 -12.65911133 2.14228516 -11.48242188 1.77734375 C-7.55643872 0.59786383 -4.14951179 -0.3326262 0 0 Z " fill="#A6DFBE" transform="translate(512,163)"/>
<path d="M0 0 C5.875 1.875 5.875 1.875 7 3 C7.04063832 4.66617115 7.042721 6.33388095 7 8 C5.8274869 7.04882866 4.66212985 6.08882991 3.5 5.125 C2.8503125 4.59132813 2.200625 4.05765625 1.53125 3.5078125 C1.0259375 3.01023437 0.520625 2.51265625 0 2 C0 1.34 0 0.68 0 0 Z " fill="#59FA84" transform="translate(984,806)"/>
<path d="M0 0 C0.33 0.99 0.66 1.98 1 3 C-0.21484375 4.82421875 -0.21484375 4.82421875 -1.9375 6.6875 C-2.50339844 7.31011719 -3.06929687 7.93273437 -3.65234375 8.57421875 C-4.09707031 9.04472656 -4.54179688 9.51523437 -5 10 C-5.33 9.01 -5.66 8.02 -6 7 C-2.73239437 1.36619718 -2.73239437 1.36619718 0 0 Z " fill="#DDEBE6" transform="translate(645,374)"/>
<path d="M0 0 C0.6875 1.8125 0.6875 1.8125 1 4 C-0.4375 5.75 -0.4375 5.75 -2 7 C-2.99 6.67 -3.98 6.34 -5 6 C-3.35 4.02 -1.7 2.04 0 0 Z " fill="#CCE3DB" transform="translate(638,382)"/>
</svg>
